<svg xmlns="http://www.w3.org/2000/svg"><symbol id="mecha" viewBox="0 0 256 256"><path d="M97 156.9h20.4v12.83H97zM128 72c-23.8 0-43.8 14.4-44.8 40.7h89.6c-1-26.3-21-40.7-44.8-40.7zm10.6 84.9H159v12.83h-20.4zm-58.7 0h13v12.83h-13zm41.6 0h13v12.83h-13z"/><path d="M128 4L20.6 66v124L128 252l107.4-62V66zm64.4 150.9a1.9 1.9 0 0 1-2.1 2h-10.2v12.9h10.2a2 2 0 1 1 0 4H65.7a2 2 0 1 1 0-4h10.1v-12.9H65.7a1.9 1.9 0 0 1-2.1-2v-40.1a1.9 1.9 0 0 1 2.1-2.1h13.4c1-28.9 22.6-44.8 48.9-44.8s47.9 15.9 48.9 44.8h13.4a1.9 1.9 0 0 1 2.1 2.1z"/><path d="M163 156.9h13v12.83h-13zm-95.3-4.1h120.6v-36H67.7zM127 139h49.7a2.1 2.1 0 0 1 0 4.1H127a2.1 2.1 0 1 1 0-4.1z"/></symbol><symbol id="space-bubbles" viewBox="0 0 256 256"><path d="M98.3 149.2H84.8l-17.9 21.2 2.8 4 34.5-18.1-5.9-7.1zm-24.9-14.7h111.4v10.59H73.4z"/><path d="M128 4L20.6 66v124L128 252l107.4-62V66zm65.2 167.6l-4.7 6.7a2.2 2.2 0 0 1-2.7.6l-9.7-5.1H79.7l-9.8 5.1a2.2 2.2 0 0 1-2.6-.6l-4.7-6.7a2.3 2.3 0 0 1 .2-2.5l16.9-19.9h-8.3a1.9 1.9 0 0 1-2.1-2.1v-14.6a2 2 0 0 1 2.1-2.1h11.8a56.8 56.8 0 0 1-2.3-15.4 48.2 48.2 0 0 1 96.4 0 49.9 49.9 0 0 1-2.2 15.4h11.8a2 2 0 0 1 2 2.1v14.6a1.9 1.9 0 0 1-2 2.1h-10.4l16.7 19.9a2.3 2.3 0 0 1 0 2.5z"/><path d="M87.7 169.8h27.7l-8.4-10.2-19.3 10.2zm83.1-39.4a49.1 49.1 0 0 0 2.4-15.4 44.1 44.1 0 0 0-88.2 0c0 5.3.4 10.8 2.5 15.4zm-67.2 18.8l17.1 20.6h14.6l17.1-20.6h-48.8zm54.1 0l-6.1 7.1 34.7 18.1 2.8-3.8-17.9-21.4h-13.5zm-17.1 20.6h27.7L149 159.6l-8.4 10.2z"/></symbol><symbol id="super-domes" viewBox="0 0 256 256"><path d="M126 127.8V86.6l-29.4 41.2H126zm-54.8 19.3H126v22.61H71.2zM130 82.4v45.4h56.3A60.6 60.6 0 0 0 130 82.4zm0 64.7h9.2v22.61H130zm-6.1-64.5c-26.1 1.6-47.8 20.5-54.2 45.2h21.8zm19.4 64.5h41.6v22.61h-41.6z"/><path d="M128 4L20.6 66v124L128 252l107.4-62V66zm87.8 143.1h-26.9v24.7a1.9 1.9 0 0 1-2 2H69.1a1.9 1.9 0 0 1-2-2v-24.7H40.2a2 2 0 0 1 0-4h15.3v-13.3a1.9 1.9 0 0 1 2-2h8a64.5 64.5 0 0 1 62.3-49.5c.2-.2.4-.2.8 0a64.3 64.3 0 0 1 61.9 49.5h8a1.9 1.9 0 0 1 2 2v13.3h15.3a2 2 0 0 1 0 4z"/><path d="M59.6 131.9h136.9v11.2H59.6z"/></symbol></svg>