<svg xmlns="http://www.w3.org/2000/svg" width="256" height="256" viewBox="0 0 256 256"><path d="M97 156.9h20.4v12.83H97zM128 72c-23.8 0-43.8 14.4-44.8 40.7h89.6c-1-26.3-21-40.7-44.8-40.7zm10.6 84.9H159v12.83h-20.4zm-58.7 0h13v12.83h-13zm41.6 0h13v12.83h-13z"/><path d="M128 4L20.6 66v124L128 252l107.4-62V66zm64.4 150.9a1.9 1.9 0 0 1-2.1 2h-10.2v12.9h10.2a2 2 0 1 1 0 4H65.7a2 2 0 1 1 0-4h10.1v-12.9H65.7a1.9 1.9 0 0 1-2.1-2v-40.1a1.9 1.9 0 0 1 2.1-2.1h13.4c1-28.9 22.6-44.8 48.9-44.8s47.9 15.9 48.9 44.8h13.4a1.9 1.9 0 0 1 2.1 2.1z"/><path d="M163 156.9h13v12.83h-13zm-95.3-4.1h120.6v-36H67.7zM127 139h49.7a2.1 2.1 0 0 1 0 4.1H127a2.1 2.1 0 1 1 0-4.1z"/></svg>