<svg xmlns="http://www.w3.org/2000/svg" width="256" height="256" viewBox="0 0 256 256"><path d="M98.3 149.2H84.8l-17.9 21.2 2.8 4 34.5-18.1-5.9-7.1zm-24.9-14.7h111.4v10.59H73.4z"/><path d="M128 4L20.6 66v124L128 252l107.4-62V66zm65.2 167.6l-4.7 6.7a2.2 2.2 0 0 1-2.7.6l-9.7-5.1H79.7l-9.8 5.1a2.2 2.2 0 0 1-2.6-.6l-4.7-6.7a2.3 2.3 0 0 1 .2-2.5l16.9-19.9h-8.3a1.9 1.9 0 0 1-2.1-2.1v-14.6a2 2 0 0 1 2.1-2.1h11.8a56.8 56.8 0 0 1-2.3-15.4 48.2 48.2 0 0 1 96.4 0 49.9 49.9 0 0 1-2.2 15.4h11.8a2 2 0 0 1 2 2.1v14.6a1.9 1.9 0 0 1-2 2.1h-10.4l16.7 19.9a2.3 2.3 0 0 1 0 2.5z"/><path d="M87.7 169.8h27.7l-8.4-10.2-19.3 10.2zm83.1-39.4a49.1 49.1 0 0 0 2.4-15.4 44.1 44.1 0 0 0-88.2 0c0 5.3.4 10.8 2.5 15.4zm-67.2 18.8l17.1 20.6h14.6l17.1-20.6h-48.8zm54.1 0l-6.1 7.1 34.7 18.1 2.8-3.8-17.9-21.4h-13.5zm-17.1 20.6h27.7L149 159.6l-8.4 10.2z"/></svg>