<svg xmlns="http://www.w3.org/2000/svg" width="256" height="256" viewBox="0 0 256 256"><path d="M126 127.8V86.6l-29.4 41.2H126zm-54.8 19.3H126v22.61H71.2zM130 82.4v45.4h56.3A60.6 60.6 0 0 0 130 82.4zm0 64.7h9.2v22.61H130zm-6.1-64.5c-26.1 1.6-47.8 20.5-54.2 45.2h21.8zm19.4 64.5h41.6v22.61h-41.6z"/><path d="M128 4L20.6 66v124L128 252l107.4-62V66zm87.8 143.1h-26.9v24.7a1.9 1.9 0 0 1-2 2H69.1a1.9 1.9 0 0 1-2-2v-24.7H40.2a2 2 0 0 1 0-4h15.3v-13.3a1.9 1.9 0 0 1 2-2h8a64.5 64.5 0 0 1 62.3-49.5c.2-.2.4-.2.8 0a64.3 64.3 0 0 1 61.9 49.5h8a1.9 1.9 0 0 1 2 2v13.3h15.3a2 2 0 0 1 0 4z"/><path d="M59.6 131.9h136.9v11.2H59.6z"/></svg>